<svg width="95" height="18" viewBox="0 0 95 18" fill="none" xmlns="http://www.w3.org/2000/svg">
<path fill-rule="evenodd" clip-rule="evenodd" d="M85.3186 17.4562C80.4771 17.4638 76.5716 13.5713 76.564 8.75467C76.557 3.93806 80.4496 0.00766168 85.291 1.10554e-05C90.1077 -0.00759516 94.0131 3.91062 94.0208 8.72724C94.0284 13.5439 90.1351 17.4492 85.3186 17.4562ZM85.2975 3.82244C82.5709 3.82686 80.3826 6.04717 80.387 8.74822C80.3908 11.45 82.5862 13.6383 85.3128 13.6338C88.014 13.6294 90.2021 11.4346 90.1977 8.73296C90.1939 6.03191 87.9986 3.81791 85.2975 3.82244Z" fill="#00579B"/>
<path fill-rule="evenodd" clip-rule="evenodd" d="M62.371 7.31401L55.322 7.32601L55.312 0.574007L51.44 0.580007L51.466 16.713L55.337 16.707L55.328 10.8L62.377 10.789L62.386 16.697L66.258 16.69L66.232 0.557007L62.361 0.563007L62.371 7.31401Z" fill="#00579B"/>
<path fill-rule="evenodd" clip-rule="evenodd" d="M32.405 17.4562C32.4139 17.4562 32.4228 17.4562 32.4317 17.4562C37.2482 17.4492 41.1414 13.5439 41.1338 8.72724C41.1262 3.91093 37.2212 -0.00710071 32.405 9.66255e-06V3.82246C32.4069 3.82245 32.4087 3.82245 32.4106 3.82244C35.1116 3.81791 37.307 6.03191 37.3108 8.73296C37.3152 11.4346 35.127 13.6294 32.4258 13.6338C32.4189 13.6338 32.412 13.6338 32.405 13.6338V17.4562Z" fill="#00579B"/>
<path fill-rule="evenodd" clip-rule="evenodd" d="M23.677 8.75467C23.6847 13.5713 27.5901 17.4638 32.4317 17.4562C32.6226 17.4559 32.8121 17.4495 33 17.4372V13.5995C32.8117 13.6218 32.6201 13.6335 32.4258 13.6338C29.6992 13.6383 27.5039 11.45 27.5 8.74822C27.4956 6.04717 29.684 3.82686 32.4105 3.82244C32.61 3.82211 32.8067 3.83387 33 3.85704V0.0192084C32.8031 0.00616645 32.6044 -0.000305225 32.4041 1.10554e-05C27.5627 0.00766168 23.67 3.93806 23.677 8.75467Z" fill="#F38374"/>
<path fill-rule="evenodd" clip-rule="evenodd" d="M3.882 7.23898L3.871 0.760981L0 0.766981L0.026 16.899L3.897 16.893L3.89 12.351L5.525 10.661L10.399 16.883L15.884 16.874L8.201 7.80298L15.437 0.742981L10.523 0.750981L3.882 7.23898Z" fill="#F38374"/>
</svg>
